<svg xmlns="http://www.w3.org/2000/svg" viewBox="0 0 1200 630" role="img" aria-label="Pallio social card">
  <defs>
    <linearGradient id="bg" x1="0" y1="0" x2="1" y2="1">
      <stop offset="0%" stop-color="#0a0a0a"/>
      <stop offset="100%" stop-color="#1a0030"/>
    </linearGradient>
    <linearGradient id="tag" x1="0" y1="0" x2="1" y2="1">
      <stop offset="0%" stop-color="#7c3aed"/>
      <stop offset="100%" stop-color="#4c1d95"/>
    </linearGradient>
  </defs>
  <rect width="1200" height="630" fill="url(#bg)"/>

  <!-- Mark: tilted price-tag with white P inside -->
  <g transform="translate(96 175) rotate(-12 140 140)">
    <path d="M 0 64 L 184 64 L 280 160 L 184 256 L 0 256 Z" fill="url(#tag)"/>
    <circle cx="226" cy="160" r="20" fill="#0a0a0a" fill-opacity="0.55"/>
    <!-- P inside the tag -->
    <path
      d="M 40 96
         L 40 224
         L 76 224
         L 76 188
         L 108 188
         Q 164 188 164 142
         Q 164 96 108 96
         Z
         M 76 126
         L 106 126
         Q 130 126 130 142
         Q 130 158 106 158
         L 76 158
         Z"
      fill="#ffffff"/>
  </g>

  <!-- Wordmark + tagline -->
  <g transform="translate(490 230)">
    <text x="0" y="0" font-family="Inter, system-ui, sans-serif" font-weight="800" font-size="108" fill="#ffffff">Pallio</text>
    <text x="0" y="64" font-family="Inter, system-ui, sans-serif" font-weight="500" font-size="32" fill="#cbd5e1">All-in-one inventory, POS,</text>
    <text x="0" y="108" font-family="Inter, system-ui, sans-serif" font-weight="500" font-size="32" fill="#cbd5e1">and sales operations.</text>
    <text x="0" y="184" font-family="Inter, system-ui, sans-serif" font-weight="600" font-size="22" fill="#a855f7" letter-spacing="2">pallio.app</text>
  </g>
</svg>
